<mxfile host="app.diagrams.net" modified="2020-09-12T07:36:12.362Z" agent="5.0 (X11; Linux x86_64) AppleWebKit/537.36 (KHTML, like Gecko) Chrome/85.0.4183.83 Safari/537.36" etag="IitJ3K9a5EVxv2xo2Oal" version="13.6.10" type="github">
  <diagram id="NWCiK95Lhe7S9qPVW4AI" name="Page-1">
    <mxGraphModel dx="1323" dy="726" grid="1" gridSize="10" guides="1" tooltips="1" connect="1" arrows="1" fold="1" page="1" pageScale="1" pageWidth="1200" pageHeight="1600" math="0" shadow="0">
      <root>
        <mxCell id="0" />
        <mxCell id="1" parent="0" />
        <mxCell id="2z4Nh3DOtkA8L1Oq28-u-230" style="edgeStyle=orthogonalEdgeStyle;orthogonalLoop=1;jettySize=auto;html=1;strokeColor=#BD7000;fillColor=#f0a30a;fontColor=#46495D;entryX=0;entryY=0.5;entryDx=0;entryDy=0;" edge="1" parent="1" target="2z4Nh3DOtkA8L1Oq28-u-99">
          <mxGeometry relative="1" as="geometry">
            <mxPoint x="1440" y="1040" as="sourcePoint" />
            <Array as="points">
              <mxPoint x="1440" y="1040" />
              <mxPoint x="1440" y="800" />
            </Array>
          </mxGeometry>
        </mxCell>
        <object label="" dfgadfg="" id="2z4Nh3DOtkA8L1Oq28-u-1">
          <mxCell style="rounded=0;whiteSpace=wrap;html=1;fillColor=#B2C9AB;strokeColor=#788AA3;fontColor=#46495D;align=center;" vertex="1" parent="1">
            <mxGeometry x="200" y="160" width="200" height="60" as="geometry" />
          </mxCell>
        </object>
        <mxCell id="2z4Nh3DOtkA8L1Oq28-u-6" style="edgeStyle=orthogonalEdgeStyle;rounded=0;orthogonalLoop=1;jettySize=auto;html=1;exitX=0.5;exitY=1;exitDx=0;exitDy=0;strokeColor=#788AA3;fontColor=#46495D;align=center;" edge="1" parent="1">
          <mxGeometry relative="1" as="geometry">
            <mxPoint x="302.5" y="200" as="sourcePoint" />
            <mxPoint x="302.5" y="200" as="targetPoint" />
          </mxGeometry>
        </mxCell>
        <mxCell id="2z4Nh3DOtkA8L1Oq28-u-9" value="1° Semestre" style="text;html=1;strokeColor=none;fillColor=none;align=center;verticalAlign=middle;whiteSpace=wrap;rounded=0;fontColor=#46495D;" vertex="1" parent="1">
          <mxGeometry x="280" y="180" width="40" height="20" as="geometry" />
        </mxCell>
        <object label="" dfgadfg="" id="2z4Nh3DOtkA8L1Oq28-u-11">
          <mxCell style="rounded=0;whiteSpace=wrap;html=1;fillColor=#B2C9AB;strokeColor=#788AA3;fontColor=#46495D;align=center;" vertex="1" parent="1">
            <mxGeometry x="520" y="160" width="200" height="60" as="geometry" />
          </mxCell>
        </object>
        <mxCell id="2z4Nh3DOtkA8L1Oq28-u-12" style="edgeStyle=orthogonalEdgeStyle;rounded=0;orthogonalLoop=1;jettySize=auto;html=1;exitX=0.5;exitY=1;exitDx=0;exitDy=0;strokeColor=#788AA3;fontColor=#46495D;align=center;" edge="1" parent="1">
          <mxGeometry relative="1" as="geometry">
            <mxPoint x="612.5" y="200" as="sourcePoint" />
            <mxPoint x="612.5" y="200" as="targetPoint" />
          </mxGeometry>
        </mxCell>
        <mxCell id="2z4Nh3DOtkA8L1Oq28-u-13" value="2° Semestre" style="text;html=1;strokeColor=none;fillColor=none;align=center;verticalAlign=middle;whiteSpace=wrap;rounded=0;fontColor=#46495D;" vertex="1" parent="1">
          <mxGeometry x="600" y="180" width="40" height="20" as="geometry" />
        </mxCell>
        <object label="" dfgadfg="" id="2z4Nh3DOtkA8L1Oq28-u-14">
          <mxCell style="rounded=0;whiteSpace=wrap;html=1;fillColor=#B2C9AB;strokeColor=#788AA3;fontColor=#46495D;align=center;" vertex="1" parent="1">
            <mxGeometry x="840" y="160" width="200" height="60" as="geometry" />
          </mxCell>
        </object>
        <mxCell id="2z4Nh3DOtkA8L1Oq28-u-15" style="edgeStyle=orthogonalEdgeStyle;rounded=0;orthogonalLoop=1;jettySize=auto;html=1;exitX=0.5;exitY=1;exitDx=0;exitDy=0;strokeColor=#788AA3;fontColor=#46495D;align=center;" edge="1" parent="1">
          <mxGeometry relative="1" as="geometry">
            <mxPoint x="942.5" y="200" as="sourcePoint" />
            <mxPoint x="942.5" y="200" as="targetPoint" />
          </mxGeometry>
        </mxCell>
        <mxCell id="2z4Nh3DOtkA8L1Oq28-u-16" value="3° Semestre" style="text;html=1;strokeColor=none;fillColor=none;align=center;verticalAlign=middle;whiteSpace=wrap;rounded=0;fontColor=#46495D;" vertex="1" parent="1">
          <mxGeometry x="920" y="180" width="40" height="20" as="geometry" />
        </mxCell>
        <object label="" dfgadfg="" id="2z4Nh3DOtkA8L1Oq28-u-17">
          <mxCell style="rounded=0;whiteSpace=wrap;html=1;fillColor=#B2C9AB;strokeColor=#788AA3;fontColor=#46495D;align=center;" vertex="1" parent="1">
            <mxGeometry x="1160" y="160" width="200" height="60" as="geometry" />
          </mxCell>
        </object>
        <mxCell id="2z4Nh3DOtkA8L1Oq28-u-18" style="edgeStyle=orthogonalEdgeStyle;rounded=0;orthogonalLoop=1;jettySize=auto;html=1;exitX=0.5;exitY=1;exitDx=0;exitDy=0;strokeColor=#788AA3;fontColor=#46495D;align=center;" edge="1" parent="1">
          <mxGeometry relative="1" as="geometry">
            <mxPoint x="1252.5" y="200" as="sourcePoint" />
            <mxPoint x="1252.5" y="200" as="targetPoint" />
          </mxGeometry>
        </mxCell>
        <mxCell id="2z4Nh3DOtkA8L1Oq28-u-19" value="4° Semestre" style="text;html=1;strokeColor=none;fillColor=none;align=center;verticalAlign=middle;whiteSpace=wrap;rounded=0;fontColor=#46495D;" vertex="1" parent="1">
          <mxGeometry x="1240" y="180" width="40" height="20" as="geometry" />
        </mxCell>
        <object label="" dfgadfg="" id="2z4Nh3DOtkA8L1Oq28-u-22">
          <mxCell style="rounded=0;whiteSpace=wrap;html=1;fillColor=#B2C9AB;strokeColor=#788AA3;fontColor=#46495D;align=center;" vertex="1" parent="1">
            <mxGeometry x="1480" y="160" width="200" height="60" as="geometry" />
          </mxCell>
        </object>
        <mxCell id="2z4Nh3DOtkA8L1Oq28-u-23" style="edgeStyle=orthogonalEdgeStyle;rounded=0;orthogonalLoop=1;jettySize=auto;html=1;exitX=0.5;exitY=1;exitDx=0;exitDy=0;strokeColor=#788AA3;fontColor=#46495D;align=center;" edge="1" parent="1">
          <mxGeometry relative="1" as="geometry">
            <mxPoint x="1582.5" y="200" as="sourcePoint" />
            <mxPoint x="1582.5" y="200" as="targetPoint" />
          </mxGeometry>
        </mxCell>
        <mxCell id="2z4Nh3DOtkA8L1Oq28-u-24" value="5° Semestre" style="text;html=1;strokeColor=none;fillColor=none;align=center;verticalAlign=middle;whiteSpace=wrap;rounded=0;fontColor=#46495D;" vertex="1" parent="1">
          <mxGeometry x="1560" y="180" width="40" height="20" as="geometry" />
        </mxCell>
        <object label="" dfgadfg="" id="2z4Nh3DOtkA8L1Oq28-u-25">
          <mxCell style="rounded=0;whiteSpace=wrap;html=1;fillColor=#B2C9AB;strokeColor=#788AA3;fontColor=#46495D;align=center;" vertex="1" parent="1">
            <mxGeometry x="1800" y="160" width="200" height="60" as="geometry" />
          </mxCell>
        </object>
        <mxCell id="2z4Nh3DOtkA8L1Oq28-u-26" style="edgeStyle=orthogonalEdgeStyle;rounded=0;orthogonalLoop=1;jettySize=auto;html=1;exitX=0.5;exitY=1;exitDx=0;exitDy=0;strokeColor=#788AA3;fontColor=#46495D;align=center;" edge="1" parent="1">
          <mxGeometry relative="1" as="geometry">
            <mxPoint x="1892.5" y="200" as="sourcePoint" />
            <mxPoint x="1892.5" y="200" as="targetPoint" />
          </mxGeometry>
        </mxCell>
        <mxCell id="2z4Nh3DOtkA8L1Oq28-u-27" value="6° Semestre" style="text;html=1;strokeColor=none;fillColor=none;align=center;verticalAlign=middle;whiteSpace=wrap;rounded=0;fontColor=#46495D;" vertex="1" parent="1">
          <mxGeometry x="1880" y="180" width="40" height="20" as="geometry" />
        </mxCell>
        <object label="" dfgadfg="" id="2z4Nh3DOtkA8L1Oq28-u-28">
          <mxCell style="rounded=0;whiteSpace=wrap;html=1;fillColor=#B2C9AB;strokeColor=#788AA3;fontColor=#46495D;align=center;" vertex="1" parent="1">
            <mxGeometry x="2120" y="160" width="200" height="60" as="geometry" />
          </mxCell>
        </object>
        <mxCell id="2z4Nh3DOtkA8L1Oq28-u-29" style="edgeStyle=orthogonalEdgeStyle;rounded=0;orthogonalLoop=1;jettySize=auto;html=1;exitX=0.5;exitY=1;exitDx=0;exitDy=0;strokeColor=#788AA3;fontColor=#46495D;align=center;" edge="1" parent="1">
          <mxGeometry relative="1" as="geometry">
            <mxPoint x="2222.5" y="200" as="sourcePoint" />
            <mxPoint x="2222.5" y="200" as="targetPoint" />
          </mxGeometry>
        </mxCell>
        <mxCell id="2z4Nh3DOtkA8L1Oq28-u-30" value="7° Semestre" style="text;html=1;strokeColor=none;fillColor=none;align=center;verticalAlign=middle;whiteSpace=wrap;rounded=0;fontColor=#46495D;" vertex="1" parent="1">
          <mxGeometry x="2200" y="180" width="40" height="20" as="geometry" />
        </mxCell>
        <object label="" dfgadfg="" id="2z4Nh3DOtkA8L1Oq28-u-31">
          <mxCell style="rounded=0;whiteSpace=wrap;html=1;fillColor=#B2C9AB;strokeColor=#788AA3;fontColor=#46495D;align=center;" vertex="1" parent="1">
            <mxGeometry x="2440" y="160" width="200" height="60" as="geometry" />
          </mxCell>
        </object>
        <mxCell id="2z4Nh3DOtkA8L1Oq28-u-32" style="edgeStyle=orthogonalEdgeStyle;rounded=0;orthogonalLoop=1;jettySize=auto;html=1;exitX=0.5;exitY=1;exitDx=0;exitDy=0;strokeColor=#788AA3;fontColor=#46495D;align=center;" edge="1" parent="1">
          <mxGeometry relative="1" as="geometry">
            <mxPoint x="2532.5" y="200" as="sourcePoint" />
            <mxPoint x="2532.5" y="200" as="targetPoint" />
          </mxGeometry>
        </mxCell>
        <mxCell id="2z4Nh3DOtkA8L1Oq28-u-33" value="8° Semestre" style="text;html=1;strokeColor=none;fillColor=none;align=center;verticalAlign=middle;whiteSpace=wrap;rounded=0;fontColor=#46495D;" vertex="1" parent="1">
          <mxGeometry x="2520" y="180" width="40" height="20" as="geometry" />
        </mxCell>
        <mxCell id="2z4Nh3DOtkA8L1Oq28-u-36" value="" style="rounded=1;whiteSpace=wrap;html=1;sketch=0;strokeColor=#82b366;fillColor=#d5e8d4;align=center;" vertex="1" parent="1">
          <mxGeometry x="200" y="440" width="200" height="80" as="geometry" />
        </mxCell>
        <mxCell id="2z4Nh3DOtkA8L1Oq28-u-151" style="edgeStyle=orthogonalEdgeStyle;curved=0;rounded=1;sketch=0;orthogonalLoop=1;jettySize=auto;html=1;exitX=1;exitY=0.5;exitDx=0;exitDy=0;entryX=0;entryY=0.5;entryDx=0;entryDy=0;strokeColor=#001DBC;fillColor=#0050ef;fontColor=#46495D;align=center;" edge="1" parent="1" source="2z4Nh3DOtkA8L1Oq28-u-38" target="2z4Nh3DOtkA8L1Oq28-u-51">
          <mxGeometry relative="1" as="geometry" />
        </mxCell>
        <mxCell id="2z4Nh3DOtkA8L1Oq28-u-38" value="" style="rounded=1;whiteSpace=wrap;html=1;sketch=0;strokeColor=#6c8ebf;fillColor=#dae8fc;align=center;" vertex="1" parent="1">
          <mxGeometry x="200" y="280" width="200" height="80" as="geometry" />
        </mxCell>
        <mxCell id="2z4Nh3DOtkA8L1Oq28-u-39" value="" style="rounded=1;whiteSpace=wrap;html=1;sketch=0;strokeColor=#6c8ebf;fillColor=#dae8fc;align=center;" vertex="1" parent="1">
          <mxGeometry x="200" y="600" width="200" height="80" as="geometry" />
        </mxCell>
        <mxCell id="2z4Nh3DOtkA8L1Oq28-u-40" value="" style="rounded=1;whiteSpace=wrap;html=1;sketch=0;strokeColor=#82b366;fillColor=#d5e8d4;align=center;" vertex="1" parent="1">
          <mxGeometry x="200" y="1080" width="200" height="80" as="geometry" />
        </mxCell>
        <mxCell id="2z4Nh3DOtkA8L1Oq28-u-41" value="Introdução à&amp;nbsp; Engenharia de Computação" style="text;html=1;strokeColor=none;fillColor=none;align=center;verticalAlign=middle;whiteSpace=wrap;rounded=0;sketch=0;fontColor=#46495D;" vertex="1" parent="1">
          <mxGeometry x="255" y="1110" width="90" height="20" as="geometry" />
        </mxCell>
        <mxCell id="2z4Nh3DOtkA8L1Oq28-u-42" value="Introdução à&amp;nbsp; Álgebra Linear" style="text;html=1;strokeColor=none;fillColor=none;align=center;verticalAlign=middle;whiteSpace=wrap;rounded=0;sketch=0;fontColor=#46495D;" vertex="1" parent="1">
          <mxGeometry x="257.5" y="630" width="85" height="20" as="geometry" />
        </mxCell>
        <mxCell id="2z4Nh3DOtkA8L1Oq28-u-43" value="&lt;font style=&quot;font-size: 13px&quot;&gt;Algorítimos e Programação de Computadores&lt;/font&gt;" style="text;html=1;strokeColor=none;fillColor=none;align=center;verticalAlign=middle;whiteSpace=wrap;rounded=0;sketch=0;fontColor=#46495D;" vertex="1" parent="1">
          <mxGeometry x="240" y="470" width="120" height="20" as="geometry" />
        </mxCell>
        <mxCell id="2z4Nh3DOtkA8L1Oq28-u-45" value="Cálculo 1" style="text;html=1;strokeColor=none;fillColor=none;align=center;verticalAlign=middle;whiteSpace=wrap;rounded=0;sketch=0;fontColor=#46495D;" vertex="1" parent="1">
          <mxGeometry x="270" y="310" width="60" height="20" as="geometry" />
        </mxCell>
        <mxCell id="2z4Nh3DOtkA8L1Oq28-u-46" value="" style="rounded=1;whiteSpace=wrap;html=1;sketch=0;strokeColor=#9673a6;fillColor=#e1d5e7;align=center;" vertex="1" parent="1">
          <mxGeometry x="200" y="760" width="200" height="80" as="geometry" />
        </mxCell>
        <mxCell id="2z4Nh3DOtkA8L1Oq28-u-47" value="" style="rounded=1;whiteSpace=wrap;html=1;sketch=0;strokeColor=#9673a6;fillColor=#e1d5e7;align=center;" vertex="1" parent="1">
          <mxGeometry x="200" y="920" width="200" height="80" as="geometry" />
        </mxCell>
        <mxCell id="2z4Nh3DOtkA8L1Oq28-u-48" value="Física 1" style="text;html=1;strokeColor=none;fillColor=none;align=center;verticalAlign=middle;whiteSpace=wrap;rounded=0;sketch=0;fontColor=#46495D;" vertex="1" parent="1">
          <mxGeometry x="270" y="790" width="50" height="20" as="geometry" />
        </mxCell>
        <mxCell id="2z4Nh3DOtkA8L1Oq28-u-49" value="Física 1 Experimental" style="text;html=1;strokeColor=none;fillColor=none;align=center;verticalAlign=middle;whiteSpace=wrap;rounded=0;sketch=0;fontColor=#46495D;" vertex="1" parent="1">
          <mxGeometry x="280" y="950" width="40" height="20" as="geometry" />
        </mxCell>
        <mxCell id="2z4Nh3DOtkA8L1Oq28-u-144" style="edgeStyle=orthogonalEdgeStyle;curved=0;rounded=1;sketch=0;orthogonalLoop=1;jettySize=auto;html=1;exitX=1;exitY=0.5;exitDx=0;exitDy=0;entryX=0;entryY=0.5;entryDx=0;entryDy=0;strokeColor=#001DBC;fillColor=#0050ef;fontColor=#46495D;align=center;" edge="1" parent="1" source="2z4Nh3DOtkA8L1Oq28-u-51" target="2z4Nh3DOtkA8L1Oq28-u-73">
          <mxGeometry relative="1" as="geometry" />
        </mxCell>
        <mxCell id="2z4Nh3DOtkA8L1Oq28-u-166" style="edgeStyle=orthogonalEdgeStyle;curved=0;rounded=1;sketch=0;orthogonalLoop=1;jettySize=auto;html=1;entryX=0;entryY=0.25;entryDx=0;entryDy=0;strokeColor=#001DBC;fillColor=#0050ef;fontColor=#46495D;align=center;" edge="1" parent="1">
          <mxGeometry relative="1" as="geometry">
            <mxPoint x="780" y="320" as="sourcePoint" />
            <mxPoint x="840" y="790" as="targetPoint" />
            <Array as="points">
              <mxPoint x="780" y="790" />
            </Array>
          </mxGeometry>
        </mxCell>
        <mxCell id="2z4Nh3DOtkA8L1Oq28-u-176" style="edgeStyle=orthogonalEdgeStyle;curved=0;sketch=0;orthogonalLoop=1;jettySize=auto;html=1;exitX=0.5;exitY=0;exitDx=0;exitDy=0;entryX=0.5;entryY=0;entryDx=0;entryDy=0;strokeColor=#001DBC;fillColor=#0050ef;fontColor=#46495D;align=center;" edge="1" parent="1" source="2z4Nh3DOtkA8L1Oq28-u-51" target="2z4Nh3DOtkA8L1Oq28-u-84">
          <mxGeometry relative="1" as="geometry" />
        </mxCell>
        <mxCell id="2z4Nh3DOtkA8L1Oq28-u-195" style="edgeStyle=orthogonalEdgeStyle;curved=0;sketch=0;orthogonalLoop=1;jettySize=auto;html=1;exitX=0.5;exitY=0;exitDx=0;exitDy=0;strokeColor=#001DBC;fillColor=#0050ef;fontColor=#46495D;align=center;" edge="1" parent="1" source="2z4Nh3DOtkA8L1Oq28-u-51">
          <mxGeometry relative="1" as="geometry">
            <mxPoint x="1580" y="390" as="targetPoint" />
            <Array as="points">
              <mxPoint x="620" y="260" />
              <mxPoint x="1440" y="260" />
              <mxPoint x="1440" y="390" />
            </Array>
          </mxGeometry>
        </mxCell>
        <mxCell id="2z4Nh3DOtkA8L1Oq28-u-51" value="" style="rounded=1;whiteSpace=wrap;html=1;sketch=0;strokeColor=#6c8ebf;fillColor=#dae8fc;align=center;" vertex="1" parent="1">
          <mxGeometry x="520" y="280" width="200" height="80" as="geometry" />
        </mxCell>
        <mxCell id="2z4Nh3DOtkA8L1Oq28-u-196" style="edgeStyle=orthogonalEdgeStyle;curved=0;sketch=0;orthogonalLoop=1;jettySize=auto;html=1;entryX=0;entryY=0.5;entryDx=0;entryDy=0;strokeColor=#005700;fillColor=#008a00;fontColor=#46495D;align=center;" edge="1" parent="1">
          <mxGeometry relative="1" as="geometry">
            <mxPoint x="1130" y="420" as="sourcePoint" />
            <mxPoint x="1470" y="630" as="targetPoint" />
            <Array as="points">
              <mxPoint x="1400" y="420" />
              <mxPoint x="1400" y="630" />
            </Array>
          </mxGeometry>
        </mxCell>
        <mxCell id="2z4Nh3DOtkA8L1Oq28-u-52" value="" style="rounded=1;whiteSpace=wrap;html=1;sketch=0;strokeColor=#82b366;fillColor=#d5e8d4;align=center;" vertex="1" parent="1">
          <mxGeometry x="520" y="440" width="200" height="80" as="geometry" />
        </mxCell>
        <mxCell id="2z4Nh3DOtkA8L1Oq28-u-55" value="Estrutura de Dados" style="text;html=1;strokeColor=none;fillColor=none;align=center;verticalAlign=middle;whiteSpace=wrap;rounded=0;sketch=0;fontColor=#46495D;" vertex="1" parent="1">
          <mxGeometry x="577.5" y="470" width="85" height="20" as="geometry" />
        </mxCell>
        <mxCell id="2z4Nh3DOtkA8L1Oq28-u-57" value="Cálculo 2" style="text;html=1;strokeColor=none;fillColor=none;align=center;verticalAlign=middle;whiteSpace=wrap;rounded=0;sketch=0;fontColor=#46495D;" vertex="1" parent="1">
          <mxGeometry x="590" y="310" width="60" height="20" as="geometry" />
        </mxCell>
        <mxCell id="2z4Nh3DOtkA8L1Oq28-u-58" value="" style="rounded=1;whiteSpace=wrap;html=1;sketch=0;strokeColor=#9673a6;fillColor=#e1d5e7;align=center;" vertex="1" parent="1">
          <mxGeometry x="520" y="600" width="200" height="80" as="geometry" />
        </mxCell>
        <mxCell id="2z4Nh3DOtkA8L1Oq28-u-59" value="" style="rounded=1;whiteSpace=wrap;html=1;sketch=0;strokeColor=#9673a6;fillColor=#e1d5e7;align=center;" vertex="1" parent="1">
          <mxGeometry x="520" y="760" width="200" height="80" as="geometry" />
        </mxCell>
        <mxCell id="2z4Nh3DOtkA8L1Oq28-u-60" value="Física 2" style="text;html=1;strokeColor=none;fillColor=none;align=center;verticalAlign=middle;whiteSpace=wrap;rounded=0;sketch=0;fontColor=#46495D;" vertex="1" parent="1">
          <mxGeometry x="595" y="630" width="50" height="20" as="geometry" />
        </mxCell>
        <mxCell id="2z4Nh3DOtkA8L1Oq28-u-61" value="Física 2 Experimental" style="text;html=1;strokeColor=none;fillColor=none;align=center;verticalAlign=middle;whiteSpace=wrap;rounded=0;sketch=0;fontColor=#46495D;" vertex="1" parent="1">
          <mxGeometry x="595" y="790" width="40" height="20" as="geometry" />
        </mxCell>
        <mxCell id="2z4Nh3DOtkA8L1Oq28-u-188" style="edgeStyle=orthogonalEdgeStyle;curved=0;sketch=0;orthogonalLoop=1;jettySize=auto;html=1;exitX=1;exitY=0.5;exitDx=0;exitDy=0;entryX=0;entryY=0.5;entryDx=0;entryDy=0;strokeColor=#001DBC;fillColor=#0050ef;fontColor=#46495D;align=center;" edge="1" parent="1" source="2z4Nh3DOtkA8L1Oq28-u-73" target="2z4Nh3DOtkA8L1Oq28-u-87">
          <mxGeometry relative="1" as="geometry">
            <Array as="points">
              <mxPoint x="1120" y="320" />
              <mxPoint x="1120" y="800" />
            </Array>
          </mxGeometry>
        </mxCell>
        <mxCell id="2z4Nh3DOtkA8L1Oq28-u-73" value="" style="rounded=1;whiteSpace=wrap;html=1;sketch=0;strokeColor=#6c8ebf;fillColor=#dae8fc;align=center;" vertex="1" parent="1">
          <mxGeometry x="840" y="280" width="200" height="80" as="geometry" />
        </mxCell>
        <mxCell id="2z4Nh3DOtkA8L1Oq28-u-74" value="" style="rounded=1;whiteSpace=wrap;html=1;sketch=0;strokeColor=#82b366;fillColor=#d5e8d4;align=center;" vertex="1" parent="1">
          <mxGeometry x="840" y="440" width="200" height="80" as="geometry" />
        </mxCell>
        <mxCell id="2z4Nh3DOtkA8L1Oq28-u-75" value="" style="rounded=1;whiteSpace=wrap;html=1;sketch=0;strokeColor=#82b366;fillColor=#d5e8d4;align=center;glass=0;shadow=0;noLabel=0;dashed=1;" vertex="1" parent="1">
          <mxGeometry x="840" y="600" width="200" height="80" as="geometry" />
        </mxCell>
        <mxCell id="2z4Nh3DOtkA8L1Oq28-u-76" value="Introdução ao Processamento de Imagens" style="text;html=1;strokeColor=none;fillColor=none;align=center;verticalAlign=middle;whiteSpace=wrap;rounded=0;sketch=0;fontColor=#46495D;" vertex="1" parent="1">
          <mxGeometry x="895" y="630" width="90" height="20" as="geometry" />
        </mxCell>
        <mxCell id="2z4Nh3DOtkA8L1Oq28-u-77" value="Métodos de Programação" style="text;html=1;strokeColor=none;fillColor=none;align=center;verticalAlign=middle;whiteSpace=wrap;rounded=0;sketch=0;fontColor=#46495D;" vertex="1" parent="1">
          <mxGeometry x="897.5" y="470" width="85" height="20" as="geometry" />
        </mxCell>
        <mxCell id="2z4Nh3DOtkA8L1Oq28-u-79" value="Cálculo 3" style="text;html=1;strokeColor=none;fillColor=none;align=center;verticalAlign=middle;whiteSpace=wrap;rounded=0;sketch=0;fontColor=#46495D;" vertex="1" parent="1">
          <mxGeometry x="910" y="310" width="60" height="20" as="geometry" />
        </mxCell>
        <mxCell id="2z4Nh3DOtkA8L1Oq28-u-84" value="" style="rounded=1;whiteSpace=wrap;html=1;sketch=0;strokeColor=#6c8ebf;fillColor=#dae8fc;align=center;" vertex="1" parent="1">
          <mxGeometry x="1160" y="280" width="200" height="80" as="geometry" />
        </mxCell>
        <mxCell id="2z4Nh3DOtkA8L1Oq28-u-256" style="edgeStyle=orthogonalEdgeStyle;orthogonalLoop=1;jettySize=auto;html=1;strokeColor=#005700;fillColor=#008a00;fontColor=#46495D;entryX=0.175;entryY=0.75;entryDx=0;entryDy=0;entryPerimeter=0;" edge="1" parent="1" source="2z4Nh3DOtkA8L1Oq28-u-85" target="2z4Nh3DOtkA8L1Oq28-u-264">
          <mxGeometry relative="1" as="geometry">
            <mxPoint x="1700" y="750" as="targetPoint" />
            <Array as="points">
              <mxPoint x="1380" y="480" />
              <mxPoint x="1380" y="730" />
            </Array>
          </mxGeometry>
        </mxCell>
        <mxCell id="2z4Nh3DOtkA8L1Oq28-u-85" value="" style="rounded=1;whiteSpace=wrap;html=1;sketch=0;strokeColor=#82b366;fillColor=#d5e8d4;align=center;" vertex="1" parent="1">
          <mxGeometry x="1160" y="440" width="200" height="80" as="geometry" />
        </mxCell>
        <mxCell id="2z4Nh3DOtkA8L1Oq28-u-86" value="" style="rounded=1;whiteSpace=wrap;html=1;sketch=0;strokeColor=#36393d;fillColor=#ffff88;align=center;dashed=1;" vertex="1" parent="1">
          <mxGeometry x="1160" y="600" width="200" height="80" as="geometry" />
        </mxCell>
        <mxCell id="2z4Nh3DOtkA8L1Oq28-u-87" value="" style="rounded=1;whiteSpace=wrap;html=1;sketch=0;strokeColor=#d6b656;fillColor=#fff2cc;align=center;" vertex="1" parent="1">
          <mxGeometry x="1160" y="760" width="200" height="80" as="geometry" />
        </mxCell>
        <mxCell id="2z4Nh3DOtkA8L1Oq28-u-88" value="Eletromagnetismo 1" style="text;html=1;strokeColor=none;fillColor=none;align=center;verticalAlign=middle;whiteSpace=wrap;rounded=0;sketch=0;fontColor=#46495D;" vertex="1" parent="1">
          <mxGeometry x="1200" y="790" width="120" height="20" as="geometry" />
        </mxCell>
        <mxCell id="2z4Nh3DOtkA8L1Oq28-u-89" value="Introdução à&amp;nbsp; Economia" style="text;html=1;strokeColor=none;fillColor=none;align=center;verticalAlign=middle;whiteSpace=wrap;rounded=0;sketch=0;fontColor=#46495D;" vertex="1" parent="1">
          <mxGeometry x="1217.5" y="630" width="85" height="20" as="geometry" />
        </mxCell>
        <mxCell id="2z4Nh3DOtkA8L1Oq28-u-90" value="&lt;span style=&quot;font-size: 13px&quot;&gt;Cálculo Númerico&lt;/span&gt;" style="text;html=1;strokeColor=none;fillColor=none;align=center;verticalAlign=middle;whiteSpace=wrap;rounded=0;sketch=0;fontColor=#46495D;" vertex="1" parent="1">
          <mxGeometry x="1200" y="310" width="120" height="20" as="geometry" />
        </mxCell>
        <mxCell id="2z4Nh3DOtkA8L1Oq28-u-91" value="Técnicas de Programação 1" style="text;html=1;strokeColor=none;fillColor=none;align=center;verticalAlign=middle;whiteSpace=wrap;rounded=0;sketch=0;fontColor=#46495D;" vertex="1" parent="1">
          <mxGeometry x="1210" y="470" width="100" height="20" as="geometry" />
        </mxCell>
        <mxCell id="2z4Nh3DOtkA8L1Oq28-u-92" value="" style="rounded=1;whiteSpace=wrap;html=1;sketch=0;strokeColor=#d6b656;fillColor=#fff2cc;align=center;" vertex="1" parent="1">
          <mxGeometry x="1160" y="920" width="200" height="80" as="geometry" />
        </mxCell>
        <mxCell id="2z4Nh3DOtkA8L1Oq28-u-93" value="" style="rounded=1;whiteSpace=wrap;html=1;sketch=0;strokeColor=#d6b656;fillColor=#fff2cc;align=center;" vertex="1" parent="1">
          <mxGeometry x="1160" y="1080" width="200" height="80" as="geometry" />
        </mxCell>
        <mxCell id="2z4Nh3DOtkA8L1Oq28-u-94" value="Sistemas Digitais" style="text;html=1;strokeColor=none;fillColor=none;align=center;verticalAlign=middle;whiteSpace=wrap;rounded=0;sketch=0;fontColor=#46495D;" vertex="1" parent="1">
          <mxGeometry x="1235" y="950" width="50" height="20" as="geometry" />
        </mxCell>
        <mxCell id="2z4Nh3DOtkA8L1Oq28-u-95" value="Laboratório de Sistemas Digitais" style="text;html=1;strokeColor=none;fillColor=none;align=center;verticalAlign=middle;whiteSpace=wrap;rounded=0;sketch=0;fontColor=#46495D;" vertex="1" parent="1">
          <mxGeometry x="1215" y="1110" width="90" height="30" as="geometry" />
        </mxCell>
        <mxCell id="2z4Nh3DOtkA8L1Oq28-u-96" value="" style="rounded=1;whiteSpace=wrap;html=1;sketch=0;strokeColor=#d6b656;fillColor=#fff2cc;align=center;" vertex="1" parent="1">
          <mxGeometry x="1480" y="280" width="200" height="80" as="geometry" />
        </mxCell>
        <mxCell id="2z4Nh3DOtkA8L1Oq28-u-97" value="" style="rounded=1;whiteSpace=wrap;html=1;sketch=0;strokeColor=#d6b656;fillColor=#fff2cc;align=center;" vertex="1" parent="1">
          <mxGeometry x="1480" y="440" width="200" height="80" as="geometry" />
        </mxCell>
        <mxCell id="2z4Nh3DOtkA8L1Oq28-u-271" style="edgeStyle=orthogonalEdgeStyle;orthogonalLoop=1;jettySize=auto;html=1;exitX=0.5;exitY=1;exitDx=0;exitDy=0;strokeColor=#005700;fillColor=#008a00;fontColor=#46495D;entryX=0.175;entryY=0.25;entryDx=0;entryDy=0;entryPerimeter=0;" edge="1" parent="1" source="2z4Nh3DOtkA8L1Oq28-u-98" target="2z4Nh3DOtkA8L1Oq28-u-264">
          <mxGeometry relative="1" as="geometry">
            <Array as="points">
              <mxPoint x="1570" y="710" />
            </Array>
          </mxGeometry>
        </mxCell>
        <mxCell id="2z4Nh3DOtkA8L1Oq28-u-98" value="" style="rounded=1;whiteSpace=wrap;html=1;sketch=0;strokeColor=#82b366;fillColor=#d5e8d4;align=center;" vertex="1" parent="1">
          <mxGeometry x="1470" y="600" width="200" height="80" as="geometry" />
        </mxCell>
        <mxCell id="2z4Nh3DOtkA8L1Oq28-u-272" style="edgeStyle=orthogonalEdgeStyle;orthogonalLoop=1;jettySize=auto;html=1;exitX=0.5;exitY=1;exitDx=0;exitDy=0;entryX=0;entryY=0.625;entryDx=0;entryDy=0;entryPerimeter=0;strokeColor=#005700;fillColor=#008a00;fontColor=#46495D;" edge="1" parent="1" source="2z4Nh3DOtkA8L1Oq28-u-99" target="2z4Nh3DOtkA8L1Oq28-u-116">
          <mxGeometry relative="1" as="geometry">
            <Array as="points">
              <mxPoint x="1580" y="880" />
              <mxPoint x="1760" y="880" />
              <mxPoint x="1760" y="970" />
            </Array>
          </mxGeometry>
        </mxCell>
        <mxCell id="2z4Nh3DOtkA8L1Oq28-u-99" value="" style="rounded=1;whiteSpace=wrap;html=1;sketch=0;strokeColor=#82b366;fillColor=#d5e8d4;align=center;" vertex="1" parent="1">
          <mxGeometry x="1480" y="760" width="200" height="80" as="geometry" />
        </mxCell>
        <mxCell id="2z4Nh3DOtkA8L1Oq28-u-100" value="Organização e Arquitetura de Computadores" style="text;html=1;strokeColor=none;fillColor=none;align=center;verticalAlign=middle;whiteSpace=wrap;rounded=0;sketch=0;fontColor=#46495D;" vertex="1" parent="1">
          <mxGeometry x="1522.5" y="790" width="115" height="20" as="geometry" />
        </mxCell>
        <mxCell id="2z4Nh3DOtkA8L1Oq28-u-101" value="Linguagens de Programação" style="text;html=1;strokeColor=none;fillColor=none;align=center;verticalAlign=middle;whiteSpace=wrap;rounded=0;sketch=0;fontColor=#46495D;" vertex="1" parent="1">
          <mxGeometry x="1527.5" y="630" width="85" height="20" as="geometry" />
        </mxCell>
        <mxCell id="2z4Nh3DOtkA8L1Oq28-u-102" value="&lt;span style=&quot;font-size: 13px&quot;&gt;Circuitos Elétricos 1&lt;/span&gt;" style="text;html=1;strokeColor=none;fillColor=none;align=center;verticalAlign=middle;whiteSpace=wrap;rounded=0;sketch=0;fontColor=#46495D;" vertex="1" parent="1">
          <mxGeometry x="1520" y="310" width="120" height="20" as="geometry" />
        </mxCell>
        <mxCell id="2z4Nh3DOtkA8L1Oq28-u-103" value="&lt;span style=&quot;font-size: 13px&quot;&gt;Laboratório de Circuitos Elétricos 1&lt;/span&gt;" style="text;html=1;strokeColor=none;fillColor=none;align=center;verticalAlign=middle;whiteSpace=wrap;rounded=0;sketch=0;fontColor=#46495D;" vertex="1" parent="1">
          <mxGeometry x="1515" y="470" width="130" height="20" as="geometry" />
        </mxCell>
        <mxCell id="2z4Nh3DOtkA8L1Oq28-u-104" value="" style="rounded=1;whiteSpace=wrap;html=1;sketch=0;strokeColor=#d6b656;fillColor=#fff2cc;align=center;" vertex="1" parent="1">
          <mxGeometry x="1480" y="920" width="200" height="80" as="geometry" />
        </mxCell>
        <mxCell id="2z4Nh3DOtkA8L1Oq28-u-105" value="" style="rounded=1;whiteSpace=wrap;html=1;sketch=0;strokeColor=#d6b656;fillColor=#fff2cc;align=center;" vertex="1" parent="1">
          <mxGeometry x="1480" y="1080" width="200" height="80" as="geometry" />
        </mxCell>
        <mxCell id="2z4Nh3DOtkA8L1Oq28-u-106" value="Sistemas Microprocessados" style="text;html=1;strokeColor=none;fillColor=none;align=center;verticalAlign=middle;whiteSpace=wrap;rounded=0;sketch=0;fontColor=#46495D;" vertex="1" parent="1">
          <mxGeometry x="1555" y="950" width="50" height="20" as="geometry" />
        </mxCell>
        <mxCell id="2z4Nh3DOtkA8L1Oq28-u-107" value="Laboratório de Sistemas Microprocessados" style="text;html=1;strokeColor=none;fillColor=none;align=center;verticalAlign=middle;whiteSpace=wrap;rounded=0;sketch=0;fontColor=#46495D;" vertex="1" parent="1">
          <mxGeometry x="1560" y="1110" width="40" height="20" as="geometry" />
        </mxCell>
        <mxCell id="2z4Nh3DOtkA8L1Oq28-u-108" value="" style="rounded=1;whiteSpace=wrap;html=1;sketch=0;strokeColor=#d6b656;fillColor=#fff2cc;align=center;" vertex="1" parent="1">
          <mxGeometry x="1800" y="280" width="200" height="80" as="geometry" />
        </mxCell>
        <mxCell id="2z4Nh3DOtkA8L1Oq28-u-109" value="" style="rounded=1;whiteSpace=wrap;html=1;sketch=0;strokeColor=#d6b656;fillColor=#fff2cc;align=center;" vertex="1" parent="1">
          <mxGeometry x="1800" y="440" width="200" height="80" as="geometry" />
        </mxCell>
        <mxCell id="2z4Nh3DOtkA8L1Oq28-u-110" value="" style="rounded=1;whiteSpace=wrap;html=1;sketch=0;strokeColor=#82b366;fillColor=#d5e8d4;align=center;" vertex="1" parent="1">
          <mxGeometry x="1800" y="600" width="200" height="80" as="geometry" />
        </mxCell>
        <mxCell id="2z4Nh3DOtkA8L1Oq28-u-111" value="" style="rounded=1;whiteSpace=wrap;html=1;sketch=0;strokeColor=#82b366;fillColor=#d5e8d4;align=center;" vertex="1" parent="1">
          <mxGeometry x="1800" y="760" width="200" height="80" as="geometry" />
        </mxCell>
        <mxCell id="2z4Nh3DOtkA8L1Oq28-u-112" value="Engenharia de Software" style="text;html=1;strokeColor=none;fillColor=none;align=center;verticalAlign=middle;whiteSpace=wrap;rounded=0;sketch=0;fontColor=#46495D;" vertex="1" parent="1">
          <mxGeometry x="1855" y="790" width="90" height="20" as="geometry" />
        </mxCell>
        <mxCell id="2z4Nh3DOtkA8L1Oq28-u-113" value="Projeto e Análise de Algorítimos" style="text;html=1;strokeColor=none;fillColor=none;align=center;verticalAlign=middle;whiteSpace=wrap;rounded=0;sketch=0;fontColor=#46495D;" vertex="1" parent="1">
          <mxGeometry x="1842.5" y="620" width="115" height="40" as="geometry" />
        </mxCell>
        <mxCell id="2z4Nh3DOtkA8L1Oq28-u-114" value="&lt;font style=&quot;font-size: 13px&quot;&gt;Circuitos Elétricos 2&lt;/font&gt;" style="text;html=1;strokeColor=none;fillColor=none;align=center;verticalAlign=middle;whiteSpace=wrap;rounded=0;sketch=0;fontColor=#46495D;" vertex="1" parent="1">
          <mxGeometry x="1840" y="310" width="120" height="20" as="geometry" />
        </mxCell>
        <mxCell id="2z4Nh3DOtkA8L1Oq28-u-115" value="Laboratórios de Circuitos Elétricos 2" style="text;html=1;strokeColor=none;fillColor=none;align=center;verticalAlign=middle;whiteSpace=wrap;rounded=0;sketch=0;fontColor=#46495D;" vertex="1" parent="1">
          <mxGeometry x="1845" y="470" width="110" height="20" as="geometry" />
        </mxCell>
        <mxCell id="2z4Nh3DOtkA8L1Oq28-u-116" value="" style="rounded=1;whiteSpace=wrap;html=1;sketch=0;strokeColor=#82b366;fillColor=#d5e8d4;align=center;" vertex="1" parent="1">
          <mxGeometry x="1800" y="920" width="200" height="80" as="geometry" />
        </mxCell>
        <mxCell id="2z4Nh3DOtkA8L1Oq28-u-117" value="" style="rounded=1;whiteSpace=wrap;html=1;sketch=0;strokeColor=#82b366;fillColor=#d5e8d4;align=center;" vertex="1" parent="1">
          <mxGeometry x="1800" y="1080" width="200" height="80" as="geometry" />
        </mxCell>
        <mxCell id="2z4Nh3DOtkA8L1Oq28-u-118" value="Software Básico" style="text;html=1;strokeColor=none;fillColor=none;align=center;verticalAlign=middle;whiteSpace=wrap;rounded=0;sketch=0;fontColor=#46495D;" vertex="1" parent="1">
          <mxGeometry x="1875" y="950" width="50" height="20" as="geometry" />
        </mxCell>
        <mxCell id="2z4Nh3DOtkA8L1Oq28-u-119" value="Teleinformática de Redes 1" style="text;html=1;strokeColor=none;fillColor=none;align=center;verticalAlign=middle;whiteSpace=wrap;rounded=0;sketch=0;fontColor=#46495D;" vertex="1" parent="1">
          <mxGeometry x="1880" y="1110" width="40" height="20" as="geometry" />
        </mxCell>
        <mxCell id="2z4Nh3DOtkA8L1Oq28-u-120" value="" style="rounded=1;whiteSpace=wrap;html=1;sketch=0;strokeColor=#6c8ebf;fillColor=#dae8fc;align=center;" vertex="1" parent="1">
          <mxGeometry x="2120" y="280" width="200" height="80" as="geometry" />
        </mxCell>
        <mxCell id="2z4Nh3DOtkA8L1Oq28-u-121" value="" style="rounded=1;whiteSpace=wrap;html=1;sketch=0;strokeColor=#6c8ebf;fillColor=#dae8fc;align=center;" vertex="1" parent="1">
          <mxGeometry x="2120" y="440" width="200" height="80" as="geometry" />
        </mxCell>
        <mxCell id="2z4Nh3DOtkA8L1Oq28-u-122" value="" style="rounded=1;whiteSpace=wrap;html=1;sketch=0;strokeColor=#6c8ebf;fillColor=#dae8fc;align=center;" vertex="1" parent="1">
          <mxGeometry x="2120" y="600" width="200" height="80" as="geometry" />
        </mxCell>
        <mxCell id="2z4Nh3DOtkA8L1Oq28-u-123" value="" style="rounded=1;whiteSpace=wrap;html=1;sketch=0;strokeColor=#6c8ebf;fillColor=#dae8fc;align=center;" vertex="1" parent="1">
          <mxGeometry x="2120" y="760" width="200" height="80" as="geometry" />
        </mxCell>
        <mxCell id="2z4Nh3DOtkA8L1Oq28-u-124" value="Introdução à&amp;nbsp; Engenharia de Computação" style="text;html=1;strokeColor=none;fillColor=none;align=center;verticalAlign=middle;whiteSpace=wrap;rounded=0;sketch=0;fontColor=#46495D;" vertex="1" parent="1">
          <mxGeometry x="2175" y="790" width="90" height="20" as="geometry" />
        </mxCell>
        <mxCell id="2z4Nh3DOtkA8L1Oq28-u-125" value="Introdução à&amp;nbsp; Álgebra Linear" style="text;html=1;strokeColor=none;fillColor=none;align=center;verticalAlign=middle;whiteSpace=wrap;rounded=0;sketch=0;fontColor=#46495D;" vertex="1" parent="1">
          <mxGeometry x="2177.5" y="630" width="85" height="20" as="geometry" />
        </mxCell>
        <mxCell id="2z4Nh3DOtkA8L1Oq28-u-126" value="&lt;font style=&quot;font-size: 13px&quot;&gt;Algorítimos e Programação de Computadores&lt;/font&gt;" style="text;html=1;strokeColor=none;fillColor=none;align=center;verticalAlign=middle;whiteSpace=wrap;rounded=0;sketch=0;fontColor=#46495D;" vertex="1" parent="1">
          <mxGeometry x="2160" y="310" width="120" height="20" as="geometry" />
        </mxCell>
        <mxCell id="2z4Nh3DOtkA8L1Oq28-u-127" value="Cálculo 1" style="text;html=1;strokeColor=none;fillColor=none;align=center;verticalAlign=middle;whiteSpace=wrap;rounded=0;sketch=0;fontColor=#46495D;" vertex="1" parent="1">
          <mxGeometry x="2190" y="470" width="60" height="20" as="geometry" />
        </mxCell>
        <mxCell id="2z4Nh3DOtkA8L1Oq28-u-128" value="" style="rounded=1;whiteSpace=wrap;html=1;sketch=0;strokeColor=#6c8ebf;fillColor=#dae8fc;align=center;" vertex="1" parent="1">
          <mxGeometry x="2120" y="920" width="200" height="80" as="geometry" />
        </mxCell>
        <mxCell id="2z4Nh3DOtkA8L1Oq28-u-129" value="" style="rounded=1;whiteSpace=wrap;html=1;sketch=0;strokeColor=#6c8ebf;fillColor=#dae8fc;align=center;" vertex="1" parent="1">
          <mxGeometry x="2120" y="1080" width="200" height="80" as="geometry" />
        </mxCell>
        <mxCell id="2z4Nh3DOtkA8L1Oq28-u-130" value="Física 1" style="text;html=1;strokeColor=none;fillColor=none;align=center;verticalAlign=middle;whiteSpace=wrap;rounded=0;sketch=0;fontColor=#46495D;" vertex="1" parent="1">
          <mxGeometry x="2195" y="950" width="50" height="20" as="geometry" />
        </mxCell>
        <mxCell id="2z4Nh3DOtkA8L1Oq28-u-131" value="Física 1 Experimental" style="text;html=1;strokeColor=none;fillColor=none;align=center;verticalAlign=middle;whiteSpace=wrap;rounded=0;sketch=0;fontColor=#46495D;" vertex="1" parent="1">
          <mxGeometry x="2200" y="1110" width="40" height="20" as="geometry" />
        </mxCell>
        <mxCell id="2z4Nh3DOtkA8L1Oq28-u-132" value="" style="rounded=1;whiteSpace=wrap;html=1;sketch=0;strokeColor=#6c8ebf;fillColor=#dae8fc;align=center;" vertex="1" parent="1">
          <mxGeometry x="2440" y="280" width="200" height="80" as="geometry" />
        </mxCell>
        <mxCell id="2z4Nh3DOtkA8L1Oq28-u-133" value="" style="rounded=1;whiteSpace=wrap;html=1;sketch=0;strokeColor=#6c8ebf;fillColor=#dae8fc;align=center;" vertex="1" parent="1">
          <mxGeometry x="2440" y="440" width="200" height="80" as="geometry" />
        </mxCell>
        <mxCell id="2z4Nh3DOtkA8L1Oq28-u-134" value="" style="rounded=1;whiteSpace=wrap;html=1;sketch=0;strokeColor=#6c8ebf;fillColor=#dae8fc;align=center;" vertex="1" parent="1">
          <mxGeometry x="2440" y="600" width="200" height="80" as="geometry" />
        </mxCell>
        <mxCell id="2z4Nh3DOtkA8L1Oq28-u-135" value="" style="rounded=1;whiteSpace=wrap;html=1;sketch=0;strokeColor=#6c8ebf;fillColor=#dae8fc;align=center;" vertex="1" parent="1">
          <mxGeometry x="2440" y="760" width="200" height="80" as="geometry" />
        </mxCell>
        <mxCell id="2z4Nh3DOtkA8L1Oq28-u-136" value="Introdução à&amp;nbsp; Engenharia de Computação" style="text;html=1;strokeColor=none;fillColor=none;align=center;verticalAlign=middle;whiteSpace=wrap;rounded=0;sketch=0;fontColor=#46495D;" vertex="1" parent="1">
          <mxGeometry x="2495" y="790" width="90" height="20" as="geometry" />
        </mxCell>
        <mxCell id="2z4Nh3DOtkA8L1Oq28-u-137" value="Introdução à&amp;nbsp; Álgebra Linear" style="text;html=1;strokeColor=none;fillColor=none;align=center;verticalAlign=middle;whiteSpace=wrap;rounded=0;sketch=0;fontColor=#46495D;" vertex="1" parent="1">
          <mxGeometry x="2497.5" y="630" width="85" height="20" as="geometry" />
        </mxCell>
        <mxCell id="2z4Nh3DOtkA8L1Oq28-u-138" value="&lt;font style=&quot;font-size: 13px&quot;&gt;Algorítimos e Programação de Computadores&lt;/font&gt;" style="text;html=1;strokeColor=none;fillColor=none;align=center;verticalAlign=middle;whiteSpace=wrap;rounded=0;sketch=0;fontColor=#46495D;" vertex="1" parent="1">
          <mxGeometry x="2480" y="310" width="120" height="20" as="geometry" />
        </mxCell>
        <mxCell id="2z4Nh3DOtkA8L1Oq28-u-139" value="Cálculo 1" style="text;html=1;strokeColor=none;fillColor=none;align=center;verticalAlign=middle;whiteSpace=wrap;rounded=0;sketch=0;fontColor=#46495D;" vertex="1" parent="1">
          <mxGeometry x="2510" y="470" width="60" height="20" as="geometry" />
        </mxCell>
        <mxCell id="2z4Nh3DOtkA8L1Oq28-u-140" value="" style="rounded=1;whiteSpace=wrap;html=1;sketch=0;strokeColor=#6c8ebf;fillColor=#dae8fc;align=center;" vertex="1" parent="1">
          <mxGeometry x="2440" y="920" width="200" height="80" as="geometry" />
        </mxCell>
        <mxCell id="2z4Nh3DOtkA8L1Oq28-u-141" value="" style="rounded=1;whiteSpace=wrap;html=1;sketch=0;strokeColor=#6c8ebf;fillColor=#dae8fc;align=center;" vertex="1" parent="1">
          <mxGeometry x="2440" y="1080" width="200" height="80" as="geometry" />
        </mxCell>
        <mxCell id="2z4Nh3DOtkA8L1Oq28-u-142" value="Física 1" style="text;html=1;strokeColor=none;fillColor=none;align=center;verticalAlign=middle;whiteSpace=wrap;rounded=0;sketch=0;fontColor=#46495D;" vertex="1" parent="1">
          <mxGeometry x="2515" y="950" width="50" height="20" as="geometry" />
        </mxCell>
        <mxCell id="2z4Nh3DOtkA8L1Oq28-u-143" value="Física 1 Experimental" style="text;html=1;strokeColor=none;fillColor=none;align=center;verticalAlign=middle;whiteSpace=wrap;rounded=0;sketch=0;fontColor=#46495D;" vertex="1" parent="1">
          <mxGeometry x="2520" y="1110" width="40" height="20" as="geometry" />
        </mxCell>
        <mxCell id="2z4Nh3DOtkA8L1Oq28-u-186" value="" style="rounded=1;whiteSpace=wrap;html=1;sketch=0;strokeColor=#36393d;fillColor=#ffcccc;align=center;glass=0;shadow=0;noLabel=0;dashed=1;" vertex="1" parent="1">
          <mxGeometry x="840" y="920" width="200" height="80" as="geometry" />
        </mxCell>
        <mxCell id="2z4Nh3DOtkA8L1Oq28-u-187" value="Introdução à Atividade Impresarial" style="text;html=1;strokeColor=none;fillColor=none;align=center;verticalAlign=middle;whiteSpace=wrap;rounded=0;shadow=0;glass=0;dashed=1;sketch=0;fontColor=#46495D;" vertex="1" parent="1">
          <mxGeometry x="890" y="950" width="100" height="20" as="geometry" />
        </mxCell>
        <mxCell id="2z4Nh3DOtkA8L1Oq28-u-224" value="" style="endArrow=none;html=1;strokeColor=#005700;fillColor=#008a00;fontColor=#46495D;edgeStyle=orthogonalEdgeStyle;" edge="1" parent="1">
          <mxGeometry width="50" height="50" relative="1" as="geometry">
            <mxPoint x="1120" y="1040" as="sourcePoint" />
            <mxPoint x="1050" y="560" as="targetPoint" />
            <Array as="points">
              <mxPoint x="1080" y="1040" />
              <mxPoint x="1080" y="560" />
            </Array>
          </mxGeometry>
        </mxCell>
        <mxCell id="2z4Nh3DOtkA8L1Oq28-u-225" value="" style="endArrow=none;html=1;strokeColor=#BD7000;fillColor=#f0a30a;fontColor=#46495D;exitX=1;exitY=0.5;exitDx=0;exitDy=0;edgeStyle=orthogonalEdgeStyle;" edge="1" parent="1" source="2z4Nh3DOtkA8L1Oq28-u-92">
          <mxGeometry width="50" height="50" relative="1" as="geometry">
            <mxPoint x="1470" y="930" as="sourcePoint" />
            <mxPoint x="1400" y="1040" as="targetPoint" />
          </mxGeometry>
        </mxCell>
        <mxCell id="2z4Nh3DOtkA8L1Oq28-u-226" value="" style="endArrow=none;html=1;strokeColor=#BD7000;fillColor=#f0a30a;fontColor=#46495D;exitX=1;exitY=0.5;exitDx=0;exitDy=0;edgeStyle=orthogonalEdgeStyle;" edge="1" parent="1" source="2z4Nh3DOtkA8L1Oq28-u-93">
          <mxGeometry width="50" height="50" relative="1" as="geometry">
            <mxPoint x="1320" y="1030" as="sourcePoint" />
            <mxPoint x="1400" y="1040" as="targetPoint" />
          </mxGeometry>
        </mxCell>
        <mxCell id="2z4Nh3DOtkA8L1Oq28-u-229" value="" style="endArrow=none;html=1;strokeColor=#BD7000;fillColor=#f0a30a;fontColor=#46495D;" edge="1" parent="1">
          <mxGeometry width="50" height="50" relative="1" as="geometry">
            <mxPoint x="1400" y="1040" as="sourcePoint" />
            <mxPoint x="1440" y="1040" as="targetPoint" />
          </mxGeometry>
        </mxCell>
        <mxCell id="2z4Nh3DOtkA8L1Oq28-u-235" value="" style="endArrow=none;html=1;strokeColor=#BD7000;fillColor=#f0a30a;fontColor=#46495D;exitX=1;exitY=0.5;exitDx=0;exitDy=0;edgeStyle=orthogonalEdgeStyle;" edge="1" parent="1" source="2z4Nh3DOtkA8L1Oq28-u-307">
          <mxGeometry width="50" height="50" relative="1" as="geometry">
            <mxPoint x="1680" y="480" as="sourcePoint" />
            <mxPoint x="1720" y="400" as="targetPoint" />
          </mxGeometry>
        </mxCell>
        <mxCell id="2z4Nh3DOtkA8L1Oq28-u-236" value="" style="endArrow=none;html=1;strokeColor=#BD7000;fillColor=#f0a30a;fontColor=#46495D;exitX=1;exitY=0.5;exitDx=0;exitDy=0;edgeStyle=orthogonalEdgeStyle;" edge="1" parent="1">
          <mxGeometry width="50" height="50" relative="1" as="geometry">
            <mxPoint x="1680" y="320" as="sourcePoint" />
            <mxPoint x="1720" y="400" as="targetPoint" />
          </mxGeometry>
        </mxCell>
        <mxCell id="2z4Nh3DOtkA8L1Oq28-u-237" value="" style="endArrow=none;html=1;strokeColor=#BD7000;fillColor=#f0a30a;fontColor=#46495D;" edge="1" parent="1">
          <mxGeometry width="50" height="50" relative="1" as="geometry">
            <mxPoint x="1720" y="400" as="sourcePoint" />
            <mxPoint x="1760" y="400" as="targetPoint" />
          </mxGeometry>
        </mxCell>
        <mxCell id="2z4Nh3DOtkA8L1Oq28-u-238" value="" style="endArrow=classic;startArrow=classic;html=1;strokeColor=#BD7000;fillColor=#f0a30a;fontColor=#46495D;exitX=0.5;exitY=0;exitDx=0;exitDy=0;entryX=0.5;entryY=1;entryDx=0;entryDy=0;" edge="1" parent="1" source="2z4Nh3DOtkA8L1Oq28-u-109" target="2z4Nh3DOtkA8L1Oq28-u-108">
          <mxGeometry width="50" height="50" relative="1" as="geometry">
            <mxPoint x="1870" y="400" as="sourcePoint" />
            <mxPoint x="1920" y="350" as="targetPoint" />
          </mxGeometry>
        </mxCell>
        <mxCell id="2z4Nh3DOtkA8L1Oq28-u-241" value="" style="endArrow=classic;startArrow=classic;html=1;strokeColor=#BD7000;fillColor=#f0a30a;fontColor=#46495D;exitX=0.5;exitY=0;exitDx=0;exitDy=0;entryX=0.5;entryY=1;entryDx=0;entryDy=0;" edge="1" parent="1" source="2z4Nh3DOtkA8L1Oq28-u-97" target="2z4Nh3DOtkA8L1Oq28-u-96">
          <mxGeometry width="50" height="50" relative="1" as="geometry">
            <mxPoint x="1620" y="490" as="sourcePoint" />
            <mxPoint x="1670" y="440" as="targetPoint" />
            <Array as="points">
              <mxPoint x="1580" y="390" />
            </Array>
          </mxGeometry>
        </mxCell>
        <mxCell id="2z4Nh3DOtkA8L1Oq28-u-242" value="" style="endArrow=classic;html=1;strokeColor=#BD7000;fillColor=#f0a30a;fontColor=#46495D;" edge="1" parent="1">
          <mxGeometry width="50" height="50" relative="1" as="geometry">
            <mxPoint x="1750" y="400" as="sourcePoint" />
            <mxPoint x="1900" y="400" as="targetPoint" />
          </mxGeometry>
        </mxCell>
        <mxCell id="2z4Nh3DOtkA8L1Oq28-u-245" value="" style="endArrow=classic;startArrow=classic;html=1;strokeColor=#BD7000;fillColor=#f0a30a;fontColor=#46495D;exitX=0.5;exitY=0;exitDx=0;exitDy=0;entryX=0.5;entryY=1;entryDx=0;entryDy=0;" edge="1" parent="1" source="2z4Nh3DOtkA8L1Oq28-u-93" target="2z4Nh3DOtkA8L1Oq28-u-92">
          <mxGeometry width="50" height="50" relative="1" as="geometry">
            <mxPoint x="1350" y="930" as="sourcePoint" />
            <mxPoint x="1400" y="880" as="targetPoint" />
            <Array as="points">
              <mxPoint x="1260" y="1040" />
            </Array>
          </mxGeometry>
        </mxCell>
        <mxCell id="2z4Nh3DOtkA8L1Oq28-u-248" value="" style="endArrow=classic;html=1;strokeColor=#005700;fillColor=#008a00;fontColor=#46495D;" edge="1" parent="1">
          <mxGeometry width="50" height="50" relative="1" as="geometry">
            <mxPoint x="1120" y="1040" as="sourcePoint" />
            <mxPoint x="1260" y="1040" as="targetPoint" />
          </mxGeometry>
        </mxCell>
        <mxCell id="2z4Nh3DOtkA8L1Oq28-u-249" value="" style="endArrow=classic;html=1;strokeColor=#BD7000;fillColor=#f0a30a;fontColor=#46495D;" edge="1" parent="1">
          <mxGeometry width="50" height="50" relative="1" as="geometry">
            <mxPoint x="1440" y="1040" as="sourcePoint" />
            <mxPoint x="1580" y="1040" as="targetPoint" />
          </mxGeometry>
        </mxCell>
        <mxCell id="2z4Nh3DOtkA8L1Oq28-u-251" value="" style="endArrow=classic;startArrow=classic;html=1;strokeColor=#788AA3;fillColor=#B2C9AB;fontColor=#46495D;exitX=0.5;exitY=0;exitDx=0;exitDy=0;" edge="1" parent="1" source="2z4Nh3DOtkA8L1Oq28-u-105">
          <mxGeometry width="50" height="50" relative="1" as="geometry">
            <mxPoint x="1530" y="1050" as="sourcePoint" />
            <mxPoint x="1580" y="1000" as="targetPoint" />
          </mxGeometry>
        </mxCell>
        <mxCell id="2z4Nh3DOtkA8L1Oq28-u-264" value="" style="shape=xor;whiteSpace=wrap;html=1;rounded=1;shadow=0;glass=0;sketch=0;strokeColor=#005700;fillColor=#008a00;align=center;fontColor=#ffffff;" vertex="1" parent="1">
          <mxGeometry x="1705" y="700" width="30" height="40" as="geometry" />
        </mxCell>
        <mxCell id="2z4Nh3DOtkA8L1Oq28-u-274" value="" style="endArrow=classic;html=1;strokeColor=#005700;fillColor=#008a00;fontColor=#46495D;edgeStyle=orthogonalEdgeStyle;entryX=0.5;entryY=0;entryDx=0;entryDy=0;" edge="1" parent="1" target="2z4Nh3DOtkA8L1Oq28-u-116">
          <mxGeometry width="50" height="50" relative="1" as="geometry">
            <mxPoint x="1400" y="572" as="sourcePoint" />
            <mxPoint x="1940" y="920" as="targetPoint" />
            <Array as="points">
              <mxPoint x="1760" y="572" />
              <mxPoint x="1760" y="860" />
              <mxPoint x="1900" y="860" />
            </Array>
          </mxGeometry>
        </mxCell>
        <mxCell id="2z4Nh3DOtkA8L1Oq28-u-277" value="" style="endArrow=classic;html=1;strokeColor=#005700;fillColor=#008a00;fontColor=#46495D;edgeStyle=orthogonalEdgeStyle;entryX=1;entryY=0.5;entryDx=0;entryDy=0;" edge="1" parent="1" target="2z4Nh3DOtkA8L1Oq28-u-117">
          <mxGeometry width="50" height="50" relative="1" as="geometry">
            <mxPoint x="1880" y="860" as="sourcePoint" />
            <mxPoint x="2040" y="1123" as="targetPoint" />
            <Array as="points">
              <mxPoint x="2040" y="860" />
              <mxPoint x="2040" y="1120" />
            </Array>
          </mxGeometry>
        </mxCell>
        <mxCell id="2z4Nh3DOtkA8L1Oq28-u-300" style="edgeStyle=orthogonalEdgeStyle;orthogonalLoop=1;jettySize=auto;html=1;exitX=1;exitY=0.5;exitDx=0;exitDy=0;entryX=0.5;entryY=1;entryDx=0;entryDy=0;strokeColor=#B20000;fillColor=#e51400;fontColor=#46495D;" edge="1" parent="1" source="2z4Nh3DOtkA8L1Oq28-u-281" target="2z4Nh3DOtkA8L1Oq28-u-117">
          <mxGeometry relative="1" as="geometry">
            <Array as="points">
              <mxPoint x="740" y="960" />
              <mxPoint x="740" y="1200" />
              <mxPoint x="1900" y="1200" />
            </Array>
          </mxGeometry>
        </mxCell>
        <mxCell id="2z4Nh3DOtkA8L1Oq28-u-397" style="edgeStyle=orthogonalEdgeStyle;orthogonalLoop=1;jettySize=auto;html=1;exitX=0.5;exitY=0;exitDx=0;exitDy=0;entryX=0.5;entryY=1;entryDx=0;entryDy=0;strokeColor=#B20000;fillColor=#e51400;fontColor=#46495D;" edge="1" parent="1" source="2z4Nh3DOtkA8L1Oq28-u-281" target="2z4Nh3DOtkA8L1Oq28-u-302">
          <mxGeometry relative="1" as="geometry">
            <Array as="points">
              <mxPoint x="620" y="900" />
              <mxPoint x="940" y="900" />
            </Array>
          </mxGeometry>
        </mxCell>
        <mxCell id="2z4Nh3DOtkA8L1Oq28-u-281" value="" style="rounded=1;whiteSpace=wrap;html=1;sketch=0;strokeColor=#b46504;fillColor=#fad7ac;align=center;" vertex="1" parent="1">
          <mxGeometry x="520" y="920" width="200" height="80" as="geometry" />
        </mxCell>
        <mxCell id="2z4Nh3DOtkA8L1Oq28-u-282" value="Probabilidade e Estatística" style="text;html=1;strokeColor=none;fillColor=none;align=center;verticalAlign=middle;whiteSpace=wrap;rounded=0;sketch=0;fontColor=#46495D;" vertex="1" parent="1">
          <mxGeometry x="575" y="950" width="90" height="20" as="geometry" />
        </mxCell>
        <mxCell id="2z4Nh3DOtkA8L1Oq28-u-286" value="" style="endArrow=classic;html=1;strokeColor=#001DBC;fillColor=#0050ef;fontColor=#46495D;edgeStyle=orthogonalEdgeStyle;" edge="1" parent="1" target="2z4Nh3DOtkA8L1Oq28-u-281">
          <mxGeometry width="50" height="50" relative="1" as="geometry">
            <mxPoint x="440" y="730" as="sourcePoint" />
            <mxPoint x="640" y="1080" as="targetPoint" />
            <Array as="points">
              <mxPoint x="440" y="1040" />
              <mxPoint x="620" y="1040" />
            </Array>
          </mxGeometry>
        </mxCell>
        <mxCell id="2z4Nh3DOtkA8L1Oq28-u-296" value="" style="endArrow=none;html=1;strokeColor=#001DBC;fillColor=#0050ef;fontColor=#46495D;exitX=0.5;exitY=0;exitDx=0;exitDy=0;" edge="1" parent="1">
          <mxGeometry width="50" height="50" relative="1" as="geometry">
            <mxPoint x="440" y="729.9999999999998" as="sourcePoint" />
            <mxPoint x="440" y="630" as="targetPoint" />
          </mxGeometry>
        </mxCell>
        <mxCell id="2z4Nh3DOtkA8L1Oq28-u-302" value="" style="rounded=1;whiteSpace=wrap;html=1;sketch=0;strokeColor=#82b366;fillColor=#d5e8d4;align=center;" vertex="1" parent="1">
          <mxGeometry x="840" y="760" width="200" height="80" as="geometry" />
        </mxCell>
        <mxCell id="2z4Nh3DOtkA8L1Oq28-u-303" value="SInais e Sistemas" style="text;html=1;strokeColor=none;fillColor=none;align=center;verticalAlign=middle;whiteSpace=wrap;rounded=0;shadow=0;glass=0;sketch=0;fontColor=#46495D;" vertex="1" parent="1">
          <mxGeometry x="920" y="790" width="40" height="20" as="geometry" />
        </mxCell>
        <mxCell id="2z4Nh3DOtkA8L1Oq28-u-307" value="" style="ellipse;whiteSpace=wrap;html=1;aspect=fixed;rounded=1;shadow=0;glass=0;sketch=0;strokeColor=#BD7000;fillColor=#f0a30a;fontColor=#ffffff;align=center;" vertex="1" parent="1">
          <mxGeometry x="1710" y="390" width="20" height="20" as="geometry" />
        </mxCell>
        <mxCell id="2z4Nh3DOtkA8L1Oq28-u-308" value="" style="endArrow=none;html=1;strokeColor=#BD7000;fillColor=#f0a30a;fontColor=#46495D;exitX=1;exitY=0.5;exitDx=0;exitDy=0;edgeStyle=orthogonalEdgeStyle;" edge="1" parent="1" target="2z4Nh3DOtkA8L1Oq28-u-307">
          <mxGeometry width="50" height="50" relative="1" as="geometry">
            <mxPoint x="1680" y="480" as="sourcePoint" />
            <mxPoint x="1720" y="400" as="targetPoint" />
          </mxGeometry>
        </mxCell>
        <mxCell id="2z4Nh3DOtkA8L1Oq28-u-309" value="" style="curved=1;endArrow=classic;html=1;strokeColor=#001DBC;fillColor=#0050ef;fontColor=#46495D;" edge="1" parent="1">
          <mxGeometry width="50" height="50" relative="1" as="geometry">
            <mxPoint x="430" y="720" as="sourcePoint" />
            <mxPoint x="450" y="720" as="targetPoint" />
            <Array as="points">
              <mxPoint x="430" y="700" />
              <mxPoint x="450" y="700" />
            </Array>
          </mxGeometry>
        </mxCell>
        <mxCell id="2z4Nh3DOtkA8L1Oq28-u-311" value="" style="endArrow=none;html=1;strokeColor=#001DBC;fillColor=#0050ef;fontColor=#46495D;exitX=0.5;exitY=1;exitDx=0;exitDy=0;edgeStyle=orthogonalEdgeStyle;" edge="1" parent="1" source="2z4Nh3DOtkA8L1Oq28-u-39">
          <mxGeometry width="50" height="50" relative="1" as="geometry">
            <mxPoint x="390" y="680" as="sourcePoint" />
            <mxPoint x="430" y="720" as="targetPoint" />
            <Array as="points">
              <mxPoint x="300" y="720" />
            </Array>
          </mxGeometry>
        </mxCell>
        <mxCell id="2z4Nh3DOtkA8L1Oq28-u-347" style="edgeStyle=orthogonalEdgeStyle;orthogonalLoop=1;jettySize=auto;html=1;entryX=0;entryY=0.5;entryDx=0;entryDy=0;strokeColor=#001DBC;fillColor=#0050ef;fontColor=#46495D;" edge="1" parent="1" target="2z4Nh3DOtkA8L1Oq28-u-58">
          <mxGeometry relative="1" as="geometry">
            <mxPoint x="440" y="640" as="sourcePoint" />
          </mxGeometry>
        </mxCell>
        <mxCell id="2z4Nh3DOtkA8L1Oq28-u-314" value="" style="endArrow=none;html=1;strokeColor=#001DBC;fillColor=#0050ef;fontColor=#46495D;exitX=0.5;exitY=0;exitDx=0;exitDy=0;" edge="1" parent="1">
          <mxGeometry width="50" height="50" relative="1" as="geometry">
            <mxPoint x="440" y="635" as="sourcePoint" />
            <mxPoint x="440" y="400" as="targetPoint" />
          </mxGeometry>
        </mxCell>
        <mxCell id="2z4Nh3DOtkA8L1Oq28-u-316" value="" style="endArrow=none;html=1;strokeColor=#001DBC;fillColor=#0050ef;fontColor=#46495D;" edge="1" parent="1">
          <mxGeometry width="50" height="50" relative="1" as="geometry">
            <mxPoint x="450" y="720" as="sourcePoint" />
            <mxPoint x="610" y="720" as="targetPoint" />
          </mxGeometry>
        </mxCell>
        <mxCell id="2z4Nh3DOtkA8L1Oq28-u-320" value="" style="curved=1;endArrow=classic;html=1;strokeColor=#001DBC;fillColor=#0050ef;fontColor=#46495D;" edge="1" parent="1">
          <mxGeometry width="50" height="50" relative="1" as="geometry">
            <mxPoint x="770" y="720" as="sourcePoint" />
            <mxPoint x="790" y="720" as="targetPoint" />
            <Array as="points">
              <mxPoint x="770" y="700" />
              <mxPoint x="790" y="700" />
            </Array>
          </mxGeometry>
        </mxCell>
        <mxCell id="2z4Nh3DOtkA8L1Oq28-u-321" value="" style="endArrow=classic;html=1;strokeColor=#001DBC;fillColor=#0050ef;fontColor=#46495D;entryX=0.5;entryY=1;entryDx=0;entryDy=0;edgeStyle=orthogonalEdgeStyle;" edge="1" parent="1" target="2z4Nh3DOtkA8L1Oq28-u-75">
          <mxGeometry width="50" height="50" relative="1" as="geometry">
            <mxPoint x="790" y="720" as="sourcePoint" />
            <mxPoint x="910" y="650" as="targetPoint" />
          </mxGeometry>
        </mxCell>
        <mxCell id="2z4Nh3DOtkA8L1Oq28-u-323" value="" style="curved=1;endArrow=classic;html=1;strokeColor=#432D57;fillColor=#76608a;fontColor=#46495D;" edge="1" parent="1">
          <mxGeometry width="50" height="50" relative="1" as="geometry">
            <mxPoint x="430" y="800" as="sourcePoint" />
            <mxPoint x="450" y="800" as="targetPoint" />
            <Array as="points">
              <mxPoint x="430" y="780" />
              <mxPoint x="450" y="780" />
            </Array>
          </mxGeometry>
        </mxCell>
        <mxCell id="2z4Nh3DOtkA8L1Oq28-u-324" value="" style="endArrow=none;html=1;strokeColor=#432D57;fillColor=#76608a;fontColor=#46495D;exitX=1;exitY=0.5;exitDx=0;exitDy=0;" edge="1" parent="1" source="2z4Nh3DOtkA8L1Oq28-u-46">
          <mxGeometry width="50" height="50" relative="1" as="geometry">
            <mxPoint x="560" y="820" as="sourcePoint" />
            <mxPoint x="430" y="800" as="targetPoint" />
          </mxGeometry>
        </mxCell>
        <mxCell id="2z4Nh3DOtkA8L1Oq28-u-325" value="" style="endArrow=classic;html=1;strokeColor=#432D57;fillColor=#76608a;fontColor=#46495D;entryX=0;entryY=0.5;entryDx=0;entryDy=0;" edge="1" parent="1" target="2z4Nh3DOtkA8L1Oq28-u-59">
          <mxGeometry width="50" height="50" relative="1" as="geometry">
            <mxPoint x="450" y="800" as="sourcePoint" />
            <mxPoint x="610" y="770" as="targetPoint" />
          </mxGeometry>
        </mxCell>
        <mxCell id="2z4Nh3DOtkA8L1Oq28-u-326" value="" style="curved=1;endArrow=classic;html=1;strokeColor=#432D57;fillColor=#76608a;fontColor=#46495D;" edge="1" parent="1">
          <mxGeometry width="50" height="50" relative="1" as="geometry">
            <mxPoint x="430" y="960" as="sourcePoint" />
            <mxPoint x="450" y="960" as="targetPoint" />
            <Array as="points">
              <mxPoint x="430" y="940" />
              <mxPoint x="450" y="940" />
            </Array>
          </mxGeometry>
        </mxCell>
        <mxCell id="2z4Nh3DOtkA8L1Oq28-u-328" value="" style="endArrow=none;html=1;strokeColor=#432D57;fillColor=#76608a;fontColor=#46495D;exitX=1;exitY=0.5;exitDx=0;exitDy=0;" edge="1" parent="1" source="2z4Nh3DOtkA8L1Oq28-u-47">
          <mxGeometry width="50" height="50" relative="1" as="geometry">
            <mxPoint x="500" y="940" as="sourcePoint" />
            <mxPoint x="430" y="960" as="targetPoint" />
          </mxGeometry>
        </mxCell>
        <mxCell id="2z4Nh3DOtkA8L1Oq28-u-329" value="" style="endArrow=classic;html=1;strokeColor=#432D57;fillColor=#76608a;fontColor=#46495D;entryX=0.5;entryY=1;entryDx=0;entryDy=0;edgeStyle=orthogonalEdgeStyle;" edge="1" parent="1" target="2z4Nh3DOtkA8L1Oq28-u-59">
          <mxGeometry width="50" height="50" relative="1" as="geometry">
            <mxPoint x="450" y="960" as="sourcePoint" />
            <mxPoint x="570" y="880" as="targetPoint" />
            <Array as="points">
              <mxPoint x="490" y="960" />
              <mxPoint x="490" y="890" />
              <mxPoint x="620" y="890" />
            </Array>
          </mxGeometry>
        </mxCell>
        <mxCell id="2z4Nh3DOtkA8L1Oq28-u-330" value="" style="endArrow=none;html=1;strokeColor=#001DBC;fillColor=#0050ef;fontColor=#46495D;exitX=0.5;exitY=1;exitDx=0;exitDy=0;" edge="1" parent="1">
          <mxGeometry width="50" height="50" relative="1" as="geometry">
            <mxPoint x="440" y="325" as="sourcePoint" />
            <mxPoint x="439.58" y="320" as="targetPoint" />
          </mxGeometry>
        </mxCell>
        <mxCell id="2z4Nh3DOtkA8L1Oq28-u-337" value="" style="endArrow=none;html=1;strokeColor=#001DBC;fillColor=#0050ef;fontColor=#46495D;exitX=0.5;exitY=1;exitDx=0;exitDy=0;" edge="1" parent="1">
          <mxGeometry width="50" height="50" relative="1" as="geometry">
            <mxPoint x="440" y="405" as="sourcePoint" />
            <mxPoint x="440" y="325" as="targetPoint" />
          </mxGeometry>
        </mxCell>
        <mxCell id="2z4Nh3DOtkA8L1Oq28-u-338" value="" style="curved=1;endArrow=classic;html=1;strokeColor=#005700;fillColor=#008a00;fontColor=#46495D;" edge="1" parent="1">
          <mxGeometry width="50" height="50" relative="1" as="geometry">
            <mxPoint x="430" y="560" as="sourcePoint" />
            <mxPoint x="450" y="560" as="targetPoint" />
            <Array as="points">
              <mxPoint x="430" y="540" />
              <mxPoint x="450" y="540" />
            </Array>
          </mxGeometry>
        </mxCell>
        <mxCell id="2z4Nh3DOtkA8L1Oq28-u-339" value="" style="endArrow=none;html=1;strokeColor=#005700;fillColor=#008a00;fontColor=#46495D;edgeStyle=orthogonalEdgeStyle;" edge="1" parent="1">
          <mxGeometry width="50" height="50" relative="1" as="geometry">
            <mxPoint x="450" y="560" as="sourcePoint" />
            <mxPoint x="770" y="560" as="targetPoint" />
          </mxGeometry>
        </mxCell>
        <mxCell id="2z4Nh3DOtkA8L1Oq28-u-341" value="" style="endArrow=none;html=1;strokeColor=#005700;fillColor=#008a00;fontColor=#46495D;exitX=0.5;exitY=1;exitDx=0;exitDy=0;edgeStyle=orthogonalEdgeStyle;" edge="1" parent="1" source="2z4Nh3DOtkA8L1Oq28-u-36">
          <mxGeometry width="50" height="50" relative="1" as="geometry">
            <mxPoint x="480" y="510" as="sourcePoint" />
            <mxPoint x="430" y="560" as="targetPoint" />
            <Array as="points">
              <mxPoint x="300" y="560" />
            </Array>
          </mxGeometry>
        </mxCell>
        <mxCell id="2z4Nh3DOtkA8L1Oq28-u-342" value="" style="curved=1;endArrow=classic;html=1;strokeColor=#005700;fillColor=#008a00;fontColor=#46495D;" edge="1" parent="1">
          <mxGeometry width="50" height="50" relative="1" as="geometry">
            <mxPoint x="770" y="559.9999999999999" as="sourcePoint" />
            <mxPoint x="790" y="559.9999999999999" as="targetPoint" />
            <Array as="points">
              <mxPoint x="770" y="540" />
              <mxPoint x="790" y="540" />
            </Array>
          </mxGeometry>
        </mxCell>
        <mxCell id="2z4Nh3DOtkA8L1Oq28-u-343" value="" style="endArrow=none;html=1;strokeColor=#005700;fillColor=#008a00;fontColor=#46495D;edgeStyle=orthogonalEdgeStyle;" edge="1" parent="1">
          <mxGeometry width="50" height="50" relative="1" as="geometry">
            <mxPoint x="790" y="559.9999999999999" as="sourcePoint" />
            <mxPoint x="1050" y="560" as="targetPoint" />
          </mxGeometry>
        </mxCell>
        <mxCell id="2z4Nh3DOtkA8L1Oq28-u-349" value="" style="endArrow=none;html=1;strokeColor=#001DBC;fillColor=#0050ef;fontColor=#46495D;edgeStyle=orthogonalEdgeStyle;" edge="1" parent="1">
          <mxGeometry width="50" height="50" relative="1" as="geometry">
            <mxPoint x="440" y="400" as="sourcePoint" />
            <mxPoint x="770" y="400" as="targetPoint" />
            <Array as="points">
              <mxPoint x="770" y="400" />
            </Array>
          </mxGeometry>
        </mxCell>
        <mxCell id="2z4Nh3DOtkA8L1Oq28-u-351" value="" style="curved=1;endArrow=classic;html=1;strokeColor=#001DBC;fillColor=#0050ef;fontColor=#46495D;" edge="1" parent="1">
          <mxGeometry width="50" height="50" relative="1" as="geometry">
            <mxPoint x="770" y="400" as="sourcePoint" />
            <mxPoint x="790" y="400" as="targetPoint" />
            <Array as="points">
              <mxPoint x="770" y="380" />
              <mxPoint x="790" y="380" />
            </Array>
          </mxGeometry>
        </mxCell>
        <mxCell id="2z4Nh3DOtkA8L1Oq28-u-364" value="" style="curved=1;endArrow=classic;html=1;strokeColor=#001DBC;fillColor=#0050ef;fontColor=#46495D;" edge="1" parent="1">
          <mxGeometry width="50" height="50" relative="1" as="geometry">
            <mxPoint x="1110" y="400" as="sourcePoint" />
            <mxPoint x="1130" y="400" as="targetPoint" />
            <Array as="points">
              <mxPoint x="1110" y="380" />
              <mxPoint x="1130" y="380" />
            </Array>
          </mxGeometry>
        </mxCell>
        <mxCell id="2z4Nh3DOtkA8L1Oq28-u-365" value="" style="endArrow=none;html=1;strokeColor=#001DBC;fillColor=#0050ef;fontColor=#46495D;" edge="1" parent="1">
          <mxGeometry width="50" height="50" relative="1" as="geometry">
            <mxPoint x="790" y="400" as="sourcePoint" />
            <mxPoint x="1110" y="400" as="targetPoint" />
          </mxGeometry>
        </mxCell>
        <mxCell id="2z4Nh3DOtkA8L1Oq28-u-366" value="" style="endArrow=classic;html=1;strokeColor=#001DBC;fillColor=#0050ef;fontColor=#46495D;edgeStyle=orthogonalEdgeStyle;entryX=0.5;entryY=0;entryDx=0;entryDy=0;" edge="1" parent="1" target="2z4Nh3DOtkA8L1Oq28-u-110">
          <mxGeometry width="50" height="50" relative="1" as="geometry">
            <mxPoint x="1130" y="400" as="sourcePoint" />
            <mxPoint x="1400" y="470" as="targetPoint" />
            <Array as="points">
              <mxPoint x="1430" y="400" />
              <mxPoint x="1430" y="540" />
              <mxPoint x="1900" y="540" />
            </Array>
          </mxGeometry>
        </mxCell>
        <mxCell id="2z4Nh3DOtkA8L1Oq28-u-370" value="" style="endArrow=none;html=1;strokeColor=#005700;fillColor=#008a00;fontColor=#46495D;edgeStyle=orthogonalEdgeStyle;exitX=1;exitY=0.5;exitDx=0;exitDy=0;" edge="1" parent="1" source="2z4Nh3DOtkA8L1Oq28-u-52">
          <mxGeometry width="50" height="50" relative="1" as="geometry">
            <mxPoint x="740" y="480" as="sourcePoint" />
            <mxPoint x="770" y="480" as="targetPoint" />
            <Array as="points" />
          </mxGeometry>
        </mxCell>
        <mxCell id="2z4Nh3DOtkA8L1Oq28-u-371" value="" style="curved=1;endArrow=classic;html=1;strokeColor=#005700;fillColor=#008a00;fontColor=#46495D;" edge="1" parent="1">
          <mxGeometry width="50" height="50" relative="1" as="geometry">
            <mxPoint x="770" y="479.9999999999999" as="sourcePoint" />
            <mxPoint x="790" y="479.9999999999999" as="targetPoint" />
            <Array as="points">
              <mxPoint x="770" y="460" />
              <mxPoint x="790" y="460" />
            </Array>
          </mxGeometry>
        </mxCell>
        <mxCell id="2z4Nh3DOtkA8L1Oq28-u-372" value="" style="endArrow=none;html=1;strokeColor=#005700;fillColor=#008a00;fontColor=#46495D;" edge="1" parent="1">
          <mxGeometry width="50" height="50" relative="1" as="geometry">
            <mxPoint x="790" y="479.6599999999999" as="sourcePoint" />
            <mxPoint x="840" y="480" as="targetPoint" />
          </mxGeometry>
        </mxCell>
        <mxCell id="2z4Nh3DOtkA8L1Oq28-u-373" value="" style="curved=1;endArrow=classic;html=1;strokeColor=#005700;fillColor=#008a00;fontColor=#46495D;" edge="1" parent="1">
          <mxGeometry width="50" height="50" relative="1" as="geometry">
            <mxPoint x="770" y="420" as="sourcePoint" />
            <mxPoint x="790" y="420" as="targetPoint" />
            <Array as="points">
              <mxPoint x="770" y="400.0000000000001" />
              <mxPoint x="790" y="400" />
            </Array>
          </mxGeometry>
        </mxCell>
        <mxCell id="2z4Nh3DOtkA8L1Oq28-u-377" value="" style="endArrow=none;html=1;strokeColor=#005700;fillColor=#008a00;fontColor=#46495D;exitX=0.5;exitY=0;exitDx=0;exitDy=0;edgeStyle=orthogonalEdgeStyle;" edge="1" parent="1" source="2z4Nh3DOtkA8L1Oq28-u-52">
          <mxGeometry width="50" height="50" relative="1" as="geometry">
            <mxPoint x="620" y="430" as="sourcePoint" />
            <mxPoint x="770" y="420" as="targetPoint" />
            <Array as="points">
              <mxPoint x="620" y="420" />
            </Array>
          </mxGeometry>
        </mxCell>
        <mxCell id="2z4Nh3DOtkA8L1Oq28-u-378" value="" style="endArrow=none;html=1;strokeColor=#001DBC;fillColor=#0050ef;fontColor=#46495D;" edge="1" parent="1">
          <mxGeometry width="50" height="50" relative="1" as="geometry">
            <mxPoint x="1090" y="880" as="sourcePoint" />
            <mxPoint x="1430" y="880" as="targetPoint" />
          </mxGeometry>
        </mxCell>
        <mxCell id="2z4Nh3DOtkA8L1Oq28-u-379" value="" style="endArrow=none;html=1;strokeColor=#001DBC;fillColor=#0050ef;fontColor=#46495D;edgeStyle=orthogonalEdgeStyle;" edge="1" parent="1">
          <mxGeometry width="50" height="50" relative="1" as="geometry">
            <mxPoint x="780" y="780" as="sourcePoint" />
            <mxPoint x="930" y="880" as="targetPoint" />
            <Array as="points">
              <mxPoint x="780" y="880" />
            </Array>
          </mxGeometry>
        </mxCell>
        <mxCell id="2z4Nh3DOtkA8L1Oq28-u-381" value="" style="curved=1;endArrow=classic;html=1;strokeColor=#001DBC;fillColor=#0050ef;fontColor=#46495D;" edge="1" parent="1">
          <mxGeometry width="50" height="50" relative="1" as="geometry">
            <mxPoint x="1070" y="880" as="sourcePoint" />
            <mxPoint x="1090" y="880" as="targetPoint" />
            <Array as="points">
              <mxPoint x="1070" y="860.0000000000001" />
              <mxPoint x="1090" y="860.0000000000001" />
            </Array>
          </mxGeometry>
        </mxCell>
        <mxCell id="2z4Nh3DOtkA8L1Oq28-u-382" value="" style="curved=1;endArrow=classic;html=1;strokeColor=#001DBC;fillColor=#0050ef;fontColor=#46495D;" edge="1" parent="1">
          <mxGeometry width="50" height="50" relative="1" as="geometry">
            <mxPoint x="1430" y="880" as="sourcePoint" />
            <mxPoint x="1450" y="880" as="targetPoint" />
            <Array as="points">
              <mxPoint x="1430" y="860.0000000000001" />
              <mxPoint x="1450" y="860.0000000000001" />
            </Array>
          </mxGeometry>
        </mxCell>
        <mxCell id="2z4Nh3DOtkA8L1Oq28-u-383" value="" style="endArrow=classic;html=1;strokeColor=#001DBC;fillColor=#0050ef;fontColor=#46495D;edgeStyle=orthogonalEdgeStyle;entryX=0.566;entryY=-0.04;entryDx=0;entryDy=0;entryPerimeter=0;" edge="1" parent="1" target="2z4Nh3DOtkA8L1Oq28-u-117">
          <mxGeometry width="50" height="50" relative="1" as="geometry">
            <mxPoint x="1450" y="880" as="sourcePoint" />
            <mxPoint x="1710" y="900" as="targetPoint" />
            <Array as="points">
              <mxPoint x="1450" y="900" />
              <mxPoint x="1730" y="900" />
              <mxPoint x="1730" y="1030" />
              <mxPoint x="1913" y="1030" />
            </Array>
          </mxGeometry>
        </mxCell>
        <mxCell id="2z4Nh3DOtkA8L1Oq28-u-384" value="" style="curved=1;endArrow=classic;html=1;strokeColor=#005700;fillColor=#008a00;fontColor=#46495D;" edge="1" parent="1">
          <mxGeometry width="50" height="50" relative="1" as="geometry">
            <mxPoint x="430" y="480" as="sourcePoint" />
            <mxPoint x="450" y="480" as="targetPoint" />
            <Array as="points">
              <mxPoint x="430" y="460.0000000000001" />
              <mxPoint x="450" y="460.0000000000001" />
            </Array>
          </mxGeometry>
        </mxCell>
        <mxCell id="2z4Nh3DOtkA8L1Oq28-u-388" value="" style="endArrow=none;html=1;strokeColor=#788AA3;fillColor=#B2C9AB;fontColor=#46495D;entryX=1;entryY=0.5;entryDx=0;entryDy=0;" edge="1" parent="1" target="2z4Nh3DOtkA8L1Oq28-u-36">
          <mxGeometry width="50" height="50" relative="1" as="geometry">
            <mxPoint x="430" y="480" as="sourcePoint" />
            <mxPoint x="590" y="420" as="targetPoint" />
          </mxGeometry>
        </mxCell>
        <mxCell id="2z4Nh3DOtkA8L1Oq28-u-389" value="" style="endArrow=none;html=1;strokeColor=#005700;fillColor=#008a00;fontColor=#46495D;entryX=0;entryY=0.5;entryDx=0;entryDy=0;" edge="1" parent="1" target="2z4Nh3DOtkA8L1Oq28-u-52">
          <mxGeometry width="50" height="50" relative="1" as="geometry">
            <mxPoint x="450" y="480" as="sourcePoint" />
            <mxPoint x="590" y="420" as="targetPoint" />
          </mxGeometry>
        </mxCell>
        <mxCell id="2z4Nh3DOtkA8L1Oq28-u-390" value="" style="curved=1;endArrow=classic;html=1;strokeColor=#005700;fillColor=#008a00;fontColor=#46495D;" edge="1" parent="1">
          <mxGeometry width="50" height="50" relative="1" as="geometry">
            <mxPoint x="1110" y="420" as="sourcePoint" />
            <mxPoint x="1130" y="420" as="targetPoint" />
            <Array as="points">
              <mxPoint x="1110" y="400.0000000000001" />
              <mxPoint x="1130" y="400.0000000000001" />
            </Array>
          </mxGeometry>
        </mxCell>
        <mxCell id="2z4Nh3DOtkA8L1Oq28-u-391" value="" style="endArrow=none;html=1;strokeColor=#005700;fillColor=#008a00;fontColor=#46495D;" edge="1" parent="1">
          <mxGeometry width="50" height="50" relative="1" as="geometry">
            <mxPoint x="790" y="420" as="sourcePoint" />
            <mxPoint x="1110" y="420" as="targetPoint" />
          </mxGeometry>
        </mxCell>
        <mxCell id="2z4Nh3DOtkA8L1Oq28-u-399" value="" style="curved=1;endArrow=classic;html=1;strokeColor=#001DBC;fillColor=#0050ef;fontColor=#46495D;" edge="1" parent="1">
          <mxGeometry width="50" height="50" relative="1" as="geometry">
            <mxPoint x="930" y="880" as="sourcePoint" />
            <mxPoint x="950" y="880" as="targetPoint" />
            <Array as="points">
              <mxPoint x="930" y="860.0000000000001" />
              <mxPoint x="950" y="860.0000000000001" />
            </Array>
          </mxGeometry>
        </mxCell>
        <mxCell id="2z4Nh3DOtkA8L1Oq28-u-400" value="" style="endArrow=none;html=1;strokeColor=#001DBC;fillColor=#0050ef;fontColor=#46495D;" edge="1" parent="1">
          <mxGeometry width="50" height="50" relative="1" as="geometry">
            <mxPoint x="950" y="880" as="sourcePoint" />
            <mxPoint x="1070" y="880" as="targetPoint" />
          </mxGeometry>
        </mxCell>
        <mxCell id="2z4Nh3DOtkA8L1Oq28-u-401" value="" style="endArrow=classic;html=1;strokeColor=#001DBC;fillColor=#0050ef;fontColor=#46495D;entryX=0.5;entryY=0;entryDx=0;entryDy=0;edgeStyle=orthogonalEdgeStyle;" edge="1" parent="1" target="2z4Nh3DOtkA8L1Oq28-u-302">
          <mxGeometry width="50" height="50" relative="1" as="geometry">
            <mxPoint x="900" y="720" as="sourcePoint" />
            <mxPoint x="680" y="720" as="targetPoint" />
          </mxGeometry>
        </mxCell>
        <mxCell id="2z4Nh3DOtkA8L1Oq28-u-402" value="" style="endArrow=classic;html=1;strokeColor=#005700;fillColor=#008a00;fontColor=#46495D;entryX=0.5;entryY=0;entryDx=0;entryDy=0;" edge="1" parent="1" target="2z4Nh3DOtkA8L1Oq28-u-75">
          <mxGeometry width="50" height="50" relative="1" as="geometry">
            <mxPoint x="940" y="560" as="sourcePoint" />
            <mxPoint x="850" y="620" as="targetPoint" />
          </mxGeometry>
        </mxCell>
        <mxCell id="2z4Nh3DOtkA8L1Oq28-u-404" value="" style="endArrow=classic;html=1;strokeColor=#432D57;fillColor=#76608a;fontColor=#46495D;entryX=0.5;entryY=1;entryDx=0;entryDy=0;edgeStyle=orthogonalEdgeStyle;" edge="1" parent="1" target="2z4Nh3DOtkA8L1Oq28-u-58">
          <mxGeometry width="50" height="50" relative="1" as="geometry">
            <mxPoint x="480" y="800" as="sourcePoint" />
            <mxPoint x="560" y="650" as="targetPoint" />
            <Array as="points">
              <mxPoint x="480" y="740" />
              <mxPoint x="620" y="740" />
            </Array>
          </mxGeometry>
        </mxCell>
        <mxCell id="2z4Nh3DOtkA8L1Oq28-u-407" value="" style="curved=1;endArrow=classic;html=1;strokeColor=#001DBC;fillColor=#0050ef;fontColor=#46495D;" edge="1" parent="1">
          <mxGeometry width="50" height="50" relative="1" as="geometry">
            <mxPoint x="610" y="720" as="sourcePoint" />
            <mxPoint x="630" y="720" as="targetPoint" />
            <Array as="points">
              <mxPoint x="610" y="700.0000000000001" />
              <mxPoint x="630" y="700.0000000000001" />
            </Array>
          </mxGeometry>
        </mxCell>
        <mxCell id="2z4Nh3DOtkA8L1Oq28-u-409" value="" style="endArrow=none;html=1;strokeColor=#001DBC;fillColor=#0050ef;fontColor=#46495D;" edge="1" parent="1">
          <mxGeometry width="50" height="50" relative="1" as="geometry">
            <mxPoint x="630" y="720" as="sourcePoint" />
            <mxPoint x="770" y="720" as="targetPoint" />
          </mxGeometry>
        </mxCell>
        <mxCell id="2z4Nh3DOtkA8L1Oq28-u-410" value="" style="endArrow=classic;html=1;strokeColor=#005700;fillColor=#008a00;fontColor=#46495D;entryX=0.5;entryY=0;entryDx=0;entryDy=0;" edge="1" parent="1" target="2z4Nh3DOtkA8L1Oq28-u-85">
          <mxGeometry width="50" height="50" relative="1" as="geometry">
            <mxPoint x="1260" y="420" as="sourcePoint" />
            <mxPoint x="1340" y="500" as="targetPoint" />
          </mxGeometry>
        </mxCell>
        <mxCell id="2z4Nh3DOtkA8L1Oq28-u-414" value="" style="endArrow=none;html=1;strokeColor=#005700;fillColor=#008a00;fontColor=#46495D;" edge="1" parent="1">
          <mxGeometry width="50" height="50" relative="1" as="geometry">
            <mxPoint x="1736" y="720" as="sourcePoint" />
            <mxPoint x="1750" y="720" as="targetPoint" />
          </mxGeometry>
        </mxCell>
        <mxCell id="2z4Nh3DOtkA8L1Oq28-u-415" value="" style="curved=1;endArrow=classic;html=1;strokeColor=#005700;fillColor=#008a00;fontColor=#46495D;" edge="1" parent="1">
          <mxGeometry width="50" height="50" relative="1" as="geometry">
            <mxPoint x="1750" y="720" as="sourcePoint" />
            <mxPoint x="1770" y="720" as="targetPoint" />
            <Array as="points">
              <mxPoint x="1750" y="700.0000000000001" />
              <mxPoint x="1770" y="700.0000000000001" />
            </Array>
          </mxGeometry>
        </mxCell>
        <mxCell id="2z4Nh3DOtkA8L1Oq28-u-416" value="" style="endArrow=classic;html=1;strokeColor=#005700;fillColor=#008a00;fontColor=#46495D;entryX=0.5;entryY=0;entryDx=0;entryDy=0;edgeStyle=orthogonalEdgeStyle;" edge="1" parent="1" target="2z4Nh3DOtkA8L1Oq28-u-111">
          <mxGeometry width="50" height="50" relative="1" as="geometry">
            <mxPoint x="1770" y="720" as="sourcePoint" />
            <mxPoint x="1710" y="670" as="targetPoint" />
          </mxGeometry>
        </mxCell>
      </root>
    </mxGraphModel>
  </diagram>
</mxfile>
